<svg xmlns="http://www.w3.org/2000/svg" width="128" height="53" viewBox="0 0 128 53" fill="none"><path d="M22.8398 33.6765L28.4525 52.0456H20.7745L18.0046 49.2756L13.3151 33.7494H10.3022V52.0456H2.69704L0 49.2756V0.0728951H19.997L25.4639 4.88383L28.2339 7.65376V29.2787L22.8398 33.6765ZM18.5148 48.6439H24.8322L19.2923 30.3478H19.8755L24.9051 26.1686V5.1754L19.7783 0.631741H0.583144V48.6439H6.97342V30.3478H12.9992L18.5148 48.6439ZM6.94913 24.6135V6.31739H18.7092L18.6363 24.6135H6.94913ZM10.3022 9.71906V24.0304H17.956L18.0289 9.71906H10.3022Z" fill="white"></path><path d="M58.29 4.88383L60.9871 7.65376V47.429L55.593 51.8998H40.9172L32.8261 44.5862V4.54366L38.366 0.0728951H52.8231L58.29 4.88383ZM57.6583 44.3918V5.1754L52.5558 0.631741H38.5847L33.4821 4.81094V44.3189L38.4389 48.4981H52.7016L57.6583 44.3918ZM39.7995 42.8368V6.31739H51.511V42.8368H39.7995ZM43.1283 9.71906V42.2536H50.855V9.71906H43.1283Z" fill="white"></path><path d="M94.0319 2.76993L84.9445 27.4563L94.0319 52.0699H86.1594L83.3895 49.2999L80.1336 40.4313L75.8086 52.0699H67.9362L65.1663 49.2999L74.3022 24.6864L65.1663 0.0728951H73.1116L75.8086 2.76993L79.1374 11.6386L83.3895 0.0728951H91.3348L94.0319 2.76993ZM90.4115 48.6439L81.5429 24.6135L90.4115 0.656038H83.8268L78.2141 15.7692L72.6742 0.656038H66.0896L74.9582 24.6135L66.0896 48.6439H72.6742L78.2141 33.5308L83.8268 48.6439H90.4115Z" fill="white"></path><path d="M125.23 0L128 2.76993L118.208 34.9643V51.8998H110.336L107.639 49.1298V32.0486L98.3569 0H106.521L109.194 2.76993L112.741 15.5262L116.993 0H125.23ZM114.879 32.1215L124.453 0.558847H117.576L111.769 21.4791L106.035 0.558847H99.2316L108.319 31.9757V48.4981H114.904V32.1215H114.879Z" fill="white"></path></svg>